<svg xmlns="http://www.w3.org/2000/svg" xmlns:xlink="http://www.w3.org/1999/xlink" width="500" zoomAndPan="magnify" viewBox="0 0 375 374.999991" height="500" preserveAspectRatio="xMidYMid meet" version="1.0"><defs><clipPath id="ab757d0382"><path d="M 1 56 L 374 56 L 374 331.207031 L 1 331.207031 Z M 1 56 " clip-rule="nonzero"/></clipPath></defs><path fill="#000000" d="M 236.039062 186.925781 C 236.351562 186.925781 236.660156 186.894531 236.964844 186.835938 C 237.273438 186.773438 237.570312 186.683594 237.859375 186.566406 C 238.148438 186.445312 238.421875 186.300781 238.679688 186.125 C 238.941406 185.953125 239.179688 185.753906 239.402344 185.535156 C 239.625 185.3125 239.820312 185.074219 239.992188 184.8125 C 240.167969 184.554688 240.3125 184.28125 240.433594 183.992188 C 240.554688 183.703125 240.644531 183.40625 240.703125 183.101562 C 240.765625 182.796875 240.796875 182.484375 240.796875 182.175781 C 240.796875 181.863281 240.765625 181.554688 240.703125 181.246094 C 240.644531 180.941406 240.554688 180.644531 240.433594 180.355469 C 240.3125 180.066406 240.167969 179.792969 239.992188 179.535156 C 239.820312 179.273438 239.625 179.035156 239.402344 178.8125 C 239.179688 178.59375 238.941406 178.394531 238.679688 178.222656 C 238.421875 178.046875 238.148438 177.902344 237.859375 177.78125 C 237.570312 177.664062 237.273438 177.574219 236.964844 177.511719 C 236.660156 177.453125 236.351562 177.421875 236.039062 177.421875 C 235.726562 177.421875 235.417969 177.453125 235.109375 177.511719 C 234.804688 177.574219 234.507812 177.664062 234.21875 177.78125 C 233.929688 177.902344 233.65625 178.046875 233.394531 178.222656 C 233.136719 178.394531 232.894531 178.59375 232.675781 178.8125 C 232.453125 179.035156 232.257812 179.273438 232.082031 179.535156 C 231.910156 179.792969 231.761719 180.066406 231.644531 180.355469 C 231.523438 180.644531 231.433594 180.941406 231.371094 181.246094 C 231.3125 181.554688 231.28125 181.863281 231.28125 182.175781 C 231.28125 182.484375 231.3125 182.796875 231.371094 183.101562 C 231.433594 183.40625 231.523438 183.703125 231.644531 183.992188 C 231.761719 184.28125 231.910156 184.554688 232.082031 184.8125 C 232.257812 185.074219 232.453125 185.3125 232.675781 185.535156 C 232.894531 185.753906 233.136719 185.953125 233.394531 186.125 C 233.65625 186.300781 233.929688 186.445312 234.21875 186.566406 C 234.507812 186.683594 234.804688 186.773438 235.109375 186.835938 C 235.417969 186.894531 235.726562 186.925781 236.039062 186.925781 Z M 236.039062 186.925781 " fill-opacity="1" fill-rule="nonzero"/><path fill="#000000" d="M 143.527344 182.175781 C 143.527344 182.484375 143.496094 182.796875 143.433594 183.101562 C 143.375 183.40625 143.285156 183.703125 143.164062 183.992188 C 143.042969 184.28125 142.898438 184.554688 142.722656 184.8125 C 142.550781 185.074219 142.355469 185.3125 142.132812 185.535156 C 141.910156 185.753906 141.671875 185.953125 141.410156 186.125 C 141.152344 186.300781 140.878906 186.445312 140.589844 186.566406 C 140.300781 186.683594 140.003906 186.773438 139.695312 186.835938 C 139.390625 186.894531 139.082031 186.925781 138.769531 186.925781 C 138.457031 186.925781 138.148438 186.894531 137.839844 186.835938 C 137.535156 186.773438 137.238281 186.683594 136.949219 186.566406 C 136.660156 186.445312 136.386719 186.300781 136.125 186.125 C 135.867188 185.953125 135.625 185.753906 135.40625 185.535156 C 135.183594 185.3125 134.988281 185.074219 134.8125 184.8125 C 134.640625 184.554688 134.492188 184.28125 134.375 183.992188 C 134.253906 183.703125 134.164062 183.40625 134.101562 183.101562 C 134.042969 182.796875 134.011719 182.484375 134.011719 182.175781 C 134.011719 181.863281 134.042969 181.550781 134.101562 181.246094 C 134.164062 180.941406 134.253906 180.644531 134.375 180.355469 C 134.492188 180.066406 134.640625 179.792969 134.8125 179.535156 C 134.988281 179.273438 135.183594 179.035156 135.40625 178.8125 C 135.625 178.59375 135.867188 178.394531 136.125 178.222656 C 136.386719 178.046875 136.660156 177.902344 136.949219 177.78125 C 137.238281 177.664062 137.535156 177.574219 137.839844 177.511719 C 138.148438 177.453125 138.457031 177.421875 138.769531 177.421875 C 139.082031 177.421875 139.390625 177.453125 139.695312 177.511719 C 140.003906 177.574219 140.300781 177.664062 140.589844 177.78125 C 140.878906 177.902344 141.152344 178.046875 141.410156 178.222656 C 141.671875 178.394531 141.910156 178.59375 142.132812 178.8125 C 142.355469 179.035156 142.550781 179.273438 142.722656 179.535156 C 142.898438 179.792969 143.042969 180.066406 143.164062 180.355469 C 143.285156 180.644531 143.375 180.941406 143.433594 181.246094 C 143.496094 181.550781 143.527344 181.863281 143.527344 182.175781 Z M 143.527344 182.175781 " fill-opacity="1" fill-rule="nonzero"/><path fill="#000000" d="M 244.78125 296.175781 C 244.425781 295.984375 244.054688 295.828125 243.667969 295.707031 C 243.285156 295.585938 242.890625 295.503906 242.492188 295.457031 C 242.089844 295.410156 241.6875 295.402344 241.285156 295.429688 C 240.882812 295.457031 240.484375 295.523438 240.09375 295.628906 C 239.703125 295.730469 239.328125 295.871094 238.960938 296.042969 C 238.597656 296.21875 238.253906 296.425781 237.929688 296.664062 C 237.605469 296.902344 237.304688 297.171875 237.027344 297.46875 C 236.753906 297.761719 236.511719 298.082031 236.296875 298.425781 L 228.964844 311.269531 C 228.777344 311.625 228.621094 311.996094 228.5 312.378906 C 228.378906 312.765625 228.292969 313.15625 228.246094 313.558594 C 228.199219 313.957031 228.191406 314.359375 228.21875 314.761719 C 228.246094 315.164062 228.3125 315.5625 228.417969 315.953125 C 228.519531 316.339844 228.660156 316.71875 228.835938 317.082031 C 229.007812 317.445312 229.214844 317.789062 229.457031 318.113281 C 229.695312 318.441406 229.964844 318.738281 230.257812 319.015625 C 230.554688 319.289062 230.875 319.53125 231.214844 319.746094 C 232.167969 320.308594 233.199219 320.585938 234.300781 320.582031 C 235.40625 320.566406 236.441406 320.285156 237.402344 319.738281 C 238.359375 319.1875 239.128906 318.441406 239.703125 317.5 L 247.03125 304.652344 C 247.222656 304.296875 247.378906 303.929688 247.5 303.542969 C 247.621094 303.160156 247.703125 302.765625 247.75 302.363281 C 247.796875 301.964844 247.808594 301.5625 247.777344 301.160156 C 247.75 300.757812 247.683594 300.363281 247.582031 299.972656 C 247.476562 299.582031 247.339844 299.203125 247.164062 298.839844 C 246.988281 298.476562 246.78125 298.132812 246.542969 297.808594 C 246.304688 297.484375 246.035156 297.183594 245.738281 296.910156 C 245.441406 296.632812 245.125 296.390625 244.78125 296.175781 Z M 244.78125 296.175781 " fill-opacity="1" fill-rule="nonzero"/><path fill="#000000" d="M 133.175781 298.425781 C 133.027344 297.960938 132.832031 297.523438 132.585938 297.105469 C 132.339844 296.6875 132.050781 296.304688 131.714844 295.953125 C 131.382812 295.601562 131.015625 295.289062 130.609375 295.023438 C 130.207031 294.753906 129.777344 294.535156 129.324219 294.363281 C 128.871094 294.191406 128.402344 294.074219 127.921875 294.007812 C 127.441406 293.941406 126.960938 293.929688 126.476562 293.972656 C 125.996094 294.015625 125.523438 294.113281 125.0625 294.261719 C 124.601562 294.410156 124.160156 294.609375 123.746094 294.859375 C 123.328125 295.109375 122.945312 295.398438 122.597656 295.734375 C 122.246094 296.070312 121.9375 296.441406 121.671875 296.847656 C 121.40625 297.25 121.191406 297.679688 121.019531 298.136719 C 120.851562 298.589844 120.738281 299.054688 120.675781 299.535156 C 120.609375 300.015625 120.601562 300.5 120.648438 300.980469 C 120.695312 301.464844 120.792969 301.933594 120.949219 302.394531 C 121.101562 302.855469 121.304688 303.289062 121.554688 303.703125 C 121.804688 304.117188 122.101562 304.5 122.4375 304.847656 L 129.703125 317.691406 C 130.203125 318.230469 130.78125 318.667969 131.429688 319.007812 C 132.082031 319.347656 132.773438 319.570312 133.5 319.675781 C 134.226562 319.78125 134.949219 319.757812 135.671875 319.617188 C 136.390625 319.472656 137.066406 319.210938 137.699219 318.835938 C 138.332031 318.460938 138.882812 317.992188 139.351562 317.425781 C 139.824219 316.863281 140.183594 316.238281 140.441406 315.546875 C 140.695312 314.859375 140.828125 314.148438 140.839844 313.414062 C 140.851562 312.679688 140.738281 311.964844 140.503906 311.269531 Z M 133.175781 298.425781 " fill-opacity="1" fill-rule="nonzero"/><g clip-path="url(#ab757d0382)"><path fill="#000000" d="M 48.636719 204.011719 C 51.042969 204.015625 53.441406 203.886719 55.835938 203.625 C 63.148438 202.765625 69.941406 200.414062 76.214844 196.5625 C 67.84375 235.382812 64.03125 274.644531 64.773438 314.351562 C 64.773438 362.136719 112.859375 393.03125 187.371094 393.03125 C 261.882812 393.03125 310.035156 361.878906 310.035156 314.351562 L 310.035156 314.03125 C 310.761719 274.476562 306.945312 235.359375 298.589844 196.6875 C 304.929688 200.570312 311.785156 202.96875 319.164062 203.882812 C 321.558594 204.140625 323.957031 204.269531 326.363281 204.269531 C 343.785156 204.269531 363.972656 197.84375 373.101562 182.175781 C 373.570312 181.257812 373.808594 180.28125 373.808594 179.25 C 373.808594 178.222656 373.570312 177.246094 373.101562 176.328125 C 370.535156 171.886719 367.632812 167.675781 364.398438 163.695312 C 361.164062 159.710938 357.636719 156.007812 353.816406 152.582031 C 349.996094 149.15625 345.925781 146.054688 341.613281 143.273438 C 337.300781 140.492188 332.796875 138.066406 328.101562 135.996094 C 320.574219 133.015625 312.816406 130.875 304.828125 129.574219 C 316.398438 112.9375 327.972656 92 326.492188 76.199219 C 326.378906 74.578125 326.09375 72.984375 325.640625 71.421875 C 325.1875 69.859375 324.578125 68.359375 323.808594 66.925781 C 323.039062 65.492188 322.125 64.15625 321.070312 62.914062 C 320.019531 61.675781 318.847656 60.558594 317.558594 59.566406 C 297.046875 44.085938 255.710938 83.523438 238.867188 101.3125 C 234.945312 99.175781 230.898438 97.300781 226.734375 95.691406 C 222.566406 94.078125 218.3125 92.746094 213.972656 91.6875 C 209.628906 90.632812 205.238281 89.859375 200.796875 89.375 C 196.355469 88.890625 191.902344 88.695312 187.4375 88.789062 C 182.972656 88.683594 178.519531 88.871094 174.078125 89.34375 C 169.640625 89.820312 165.25 90.582031 160.910156 91.625 C 156.566406 92.671875 152.3125 93.996094 148.144531 95.59375 C 143.976562 97.195312 139.929688 99.058594 136.003906 101.183594 C 119.03125 83.136719 78.207031 44.214844 57.378906 59.695312 C 56.085938 60.675781 54.914062 61.785156 53.859375 63.019531 C 52.800781 64.253906 51.890625 65.585938 51.121094 67.015625 C 50.347656 68.445312 49.738281 69.9375 49.285156 71.496094 C 48.835938 73.054688 48.554688 74.644531 48.441406 76.265625 C 46.964844 92.0625 58.535156 113 70.109375 129.636719 C 62.117188 130.9375 54.359375 133.078125 46.835938 136.058594 C 42.136719 138.128906 37.632812 140.554688 33.320312 143.335938 C 29.007812 146.117188 24.941406 149.222656 21.121094 152.648438 C 17.296875 156.070312 13.769531 159.777344 10.535156 163.757812 C 7.300781 167.742188 4.402344 171.953125 1.832031 176.394531 C 1.363281 177.3125 1.128906 178.285156 1.128906 179.316406 C 1.128906 180.347656 1.363281 181.320312 1.832031 182.238281 C 11.027344 197.523438 31.214844 204.011719 48.636719 204.011719 Z M 236.039062 165.027344 C 236.601562 165.027344 237.167969 165.054688 237.726562 165.109375 C 238.289062 165.164062 238.847656 165.246094 239.402344 165.355469 C 239.957031 165.46875 240.503906 165.605469 241.042969 165.769531 C 241.582031 165.933594 242.113281 166.121094 242.636719 166.335938 C 243.160156 166.554688 243.667969 166.792969 244.167969 167.0625 C 244.664062 167.328125 245.148438 167.617188 245.617188 167.929688 C 246.085938 168.246094 246.539062 168.582031 246.976562 168.9375 C 247.414062 169.296875 247.828125 169.675781 248.230469 170.074219 C 248.628906 170.472656 249.007812 170.890625 249.363281 171.328125 C 249.722656 171.765625 250.058594 172.21875 250.371094 172.6875 C 250.683594 173.15625 250.972656 173.640625 251.238281 174.136719 C 251.507812 174.636719 251.746094 175.144531 251.960938 175.667969 C 252.179688 176.1875 252.367188 176.71875 252.53125 177.257812 C 252.695312 177.796875 252.832031 178.34375 252.941406 178.898438 C 253.050781 179.453125 253.132812 180.007812 253.1875 180.570312 C 253.242188 181.132812 253.269531 181.695312 253.269531 182.257812 C 253.265625 182.824219 253.238281 183.386719 253.183594 183.949219 C 253.125 184.507812 253.042969 185.066406 252.933594 185.621094 C 252.820312 186.171875 252.683594 186.71875 252.519531 187.257812 C 252.355469 187.796875 252.164062 188.328125 251.945312 188.851562 C 251.730469 189.371094 251.488281 189.878906 251.21875 190.378906 C 250.953125 190.875 250.660156 191.355469 250.347656 191.824219 C 250.03125 192.292969 249.695312 192.746094 249.335938 193.179688 C 248.976562 193.617188 248.597656 194.035156 248.199219 194.433594 C 247.796875 194.832031 247.378906 195.207031 246.941406 195.566406 C 246.503906 195.921875 246.050781 196.257812 245.582031 196.570312 C 245.109375 196.882812 244.625 197.171875 244.128906 197.433594 C 243.628906 197.699219 243.117188 197.941406 242.597656 198.15625 C 242.074219 198.371094 241.542969 198.558594 241.003906 198.722656 C 240.460938 198.882812 239.914062 199.019531 239.359375 199.128906 C 238.804688 199.238281 238.246094 199.316406 237.6875 199.371094 C 237.125 199.425781 236.558594 199.453125 235.996094 199.449219 C 235.429688 199.449219 234.867188 199.421875 234.304688 199.363281 C 233.742188 199.308594 233.1875 199.222656 232.632812 199.109375 C 232.078125 199 231.53125 198.859375 230.992188 198.695312 C 230.453125 198.53125 229.921875 198.339844 229.398438 198.121094 C 228.878906 197.90625 228.371094 197.664062 227.871094 197.394531 C 227.375 197.128906 226.890625 196.835938 226.421875 196.523438 C 225.953125 196.207031 225.503906 195.871094 225.066406 195.511719 C 224.632812 195.152344 224.214844 194.773438 223.816406 194.371094 C 223.417969 193.972656 223.042969 193.550781 222.683594 193.117188 C 222.328125 192.679688 221.992188 192.222656 221.679688 191.753906 C 221.367188 191.285156 221.082031 190.800781 220.816406 190.300781 C 220.550781 189.804688 220.3125 189.292969 220.097656 188.769531 C 219.882812 188.25 219.695312 187.71875 219.53125 187.175781 C 219.371094 186.636719 219.234375 186.089844 219.128906 185.535156 C 219.019531 184.980469 218.9375 184.425781 218.886719 183.863281 C 218.832031 183.300781 218.808594 182.738281 218.808594 182.175781 C 218.8125 181.613281 218.839844 181.050781 218.898438 180.492188 C 218.953125 179.929688 219.039062 179.375 219.152344 178.824219 C 219.261719 178.273438 219.402344 177.730469 219.566406 177.191406 C 219.730469 176.652344 219.921875 176.125 220.136719 175.605469 C 220.355469 175.085938 220.597656 174.582031 220.863281 174.085938 C 221.128906 173.589844 221.421875 173.109375 221.734375 172.640625 C 222.046875 172.175781 222.382812 171.722656 222.742188 171.289062 C 223.101562 170.855469 223.480469 170.441406 223.878906 170.042969 C 224.277344 169.648438 224.695312 169.269531 225.128906 168.914062 C 225.566406 168.558594 226.015625 168.226562 226.484375 167.914062 C 226.953125 167.601562 227.4375 167.3125 227.933594 167.046875 C 228.429688 166.785156 228.9375 166.542969 229.460938 166.328125 C 229.980469 166.113281 230.507812 165.925781 231.046875 165.761719 C 231.585938 165.601562 232.132812 165.464844 232.683594 165.355469 C 233.238281 165.246094 233.792969 165.164062 234.351562 165.109375 C 234.914062 165.054688 235.476562 165.027344 236.039062 165.027344 Z M 121.605469 182.175781 C 121.605469 181.613281 121.636719 181.054688 121.691406 180.496094 C 121.75 179.9375 121.832031 179.382812 121.945312 178.832031 C 122.058594 178.28125 122.195312 177.738281 122.359375 177.203125 C 122.523438 176.667969 122.714844 176.140625 122.933594 175.621094 C 123.148438 175.105469 123.390625 174.597656 123.65625 174.105469 C 123.925781 173.609375 124.214844 173.128906 124.527344 172.664062 C 124.839844 172.199219 125.175781 171.75 125.535156 171.316406 C 125.890625 170.882812 126.269531 170.46875 126.667969 170.074219 C 127.066406 169.679688 127.484375 169.304688 127.917969 168.949219 C 128.355469 168.59375 128.804688 168.261719 129.273438 167.953125 C 129.742188 167.640625 130.226562 167.355469 130.722656 167.089844 C 131.21875 166.828125 131.726562 166.589844 132.246094 166.375 C 132.765625 166.164062 133.292969 165.976562 133.832031 165.816406 C 134.367188 165.652344 134.914062 165.519531 135.464844 165.410156 C 136.015625 165.300781 136.570312 165.222656 137.128906 165.167969 C 137.6875 165.113281 138.25 165.089844 138.8125 165.089844 C 139.375 165.089844 139.933594 165.121094 140.492188 165.175781 C 141.050781 165.234375 141.605469 165.316406 142.15625 165.425781 C 142.707031 165.539062 143.25 165.675781 143.789062 165.839844 C 144.324219 166.003906 144.855469 166.195312 145.371094 166.410156 C 145.890625 166.625 146.398438 166.867188 146.890625 167.132812 C 147.386719 167.398438 147.867188 167.6875 148.335938 168 C 148.800781 168.3125 149.25 168.648438 149.683594 169.003906 C 150.117188 169.359375 150.53125 169.738281 150.929688 170.136719 C 151.324219 170.53125 151.703125 170.949219 152.058594 171.382812 C 152.414062 171.816406 152.746094 172.269531 153.058594 172.734375 C 153.367188 173.203125 153.65625 173.683594 153.921875 174.179688 C 154.183594 174.675781 154.421875 175.179688 154.636719 175.699219 C 154.851562 176.21875 155.039062 176.746094 155.203125 177.285156 C 155.363281 177.820312 155.5 178.367188 155.609375 178.917969 C 155.71875 179.464844 155.800781 180.019531 155.851562 180.578125 C 155.90625 181.136719 155.933594 181.699219 155.933594 182.257812 C 155.933594 182.820312 155.90625 183.378906 155.847656 183.9375 C 155.792969 184.496094 155.710938 185.050781 155.601562 185.601562 C 155.492188 186.152344 155.351562 186.695312 155.191406 187.234375 C 155.027344 187.769531 154.835938 188.296875 154.621094 188.816406 C 154.40625 189.332031 154.164062 189.839844 153.898438 190.335938 C 153.636719 190.828125 153.347656 191.308594 153.035156 191.777344 C 152.722656 192.242188 152.386719 192.691406 152.03125 193.125 C 151.671875 193.558594 151.296875 193.976562 150.898438 194.371094 C 150.5 194.769531 150.085938 195.144531 149.652344 195.5 C 149.214844 195.855469 148.765625 196.1875 148.296875 196.5 C 147.832031 196.8125 147.351562 197.101562 146.855469 197.363281 C 146.359375 197.628906 145.851562 197.867188 145.332031 198.082031 C 144.8125 198.296875 144.285156 198.488281 143.746094 198.648438 C 143.210938 198.8125 142.664062 198.949219 142.113281 199.058594 C 141.5625 199.167969 141.007812 199.25 140.449219 199.304688 C 139.890625 199.359375 139.332031 199.386719 138.769531 199.386719 C 138.207031 199.386719 137.644531 199.359375 137.082031 199.304688 C 136.523438 199.25 135.964844 199.164062 135.414062 199.054688 C 134.859375 198.945312 134.3125 198.808594 133.773438 198.644531 C 133.234375 198.480469 132.707031 198.292969 132.183594 198.074219 C 131.664062 197.859375 131.15625 197.617188 130.660156 197.351562 C 130.164062 197.085938 129.679688 196.796875 129.210938 196.484375 C 128.746094 196.167969 128.292969 195.835938 127.859375 195.476562 C 127.421875 195.117188 127.007812 194.738281 126.609375 194.339844 C 126.210938 193.941406 125.832031 193.523438 125.476562 193.089844 C 125.121094 192.652344 124.785156 192.199219 124.472656 191.730469 C 124.164062 191.261719 123.875 190.78125 123.609375 190.28125 C 123.34375 189.785156 123.105469 189.277344 122.890625 188.757812 C 122.675781 188.234375 122.488281 187.707031 122.328125 187.167969 C 122.164062 186.625 122.03125 186.082031 121.921875 185.527344 C 121.8125 184.976562 121.734375 184.417969 121.679688 183.859375 C 121.628906 183.296875 121.601562 182.738281 121.605469 182.175781 Z M 187.5 380.375 C 136.648438 380.375 77.308594 363.035156 77.308594 314.09375 C 77.308594 269.777344 126.746094 233.683594 187.5 233.683594 C 248.253906 233.683594 297.628906 269.777344 297.628906 314.351562 C 297.628906 363.035156 238.222656 380.375 187.5 380.375 Z M 187.5 380.375 " fill-opacity="1" fill-rule="nonzero"/></g></svg>