<svg xmlns="http://www.w3.org/2000/svg" xmlns:xlink="http://www.w3.org/1999/xlink" width="1587" zoomAndPan="magnify" viewBox="0 0 1190.25 1190.249948" height="1587" preserveAspectRatio="xMidYMid meet" version="1.0"><defs><clipPath id="71d37953bd"><path d="M 0 0 L 1189.5 0 L 1189.5 1189.5 L 0 1189.5 Z M 0 0 " clip-rule="nonzero"/></clipPath><clipPath id="6992ad47ad"><path d="M 0 1075 L 284 1075 L 284 1189.5 L 0 1189.5 Z M 0 1075 " clip-rule="nonzero"/></clipPath><clipPath id="3597aff80d"><path d="M 282 5 L 425.859375 5 L 425.859375 308 L 282 308 Z M 282 5 " clip-rule="nonzero"/></clipPath><clipPath id="c2ac8f59e6"><path d="M 109 598 L 425.859375 598 L 425.859375 1103 L 109 1103 Z M 109 598 " clip-rule="nonzero"/></clipPath><clipPath id="66f12adc84"><path d="M 343 396 L 425.859375 396 L 425.859375 537 L 343 537 Z M 343 396 " clip-rule="nonzero"/></clipPath><clipPath id="f32bf76633"><path d="M 1111 816 L 1189.5 816 L 1189.5 1100 L 1111 1100 Z M 1111 816 " clip-rule="nonzero"/></clipPath><clipPath id="6674e4857a"><path d="M 984 365 L 1189.5 365 L 1189.5 666 L 984 666 Z M 984 365 " clip-rule="nonzero"/></clipPath><clipPath id="7390202113"><path d="M 1128 238 L 1189.5 238 L 1189.5 343 L 1128 343 Z M 1128 238 " clip-rule="nonzero"/></clipPath><clipPath id="3dfdc3c41a"><path d="M 1063 1075 L 1189.5 1075 L 1189.5 1189.5 L 1063 1189.5 Z M 1063 1075 " clip-rule="nonzero"/></clipPath><clipPath id="acacfeb3ac"><path d="M 523 1096 L 786 1096 L 786 1189.5 L 523 1189.5 Z M 523 1096 " clip-rule="nonzero"/></clipPath><clipPath id="ae9baa90d1"><path d="M 1048 0 L 1189.5 0 L 1189.5 209 L 1048 209 Z M 1048 0 " clip-rule="nonzero"/></clipPath></defs><g clip-path="url(#71d37953bd)"><path fill="#ffffff" d="M 0 0 L 1189.5 0 L 1189.5 1189.5 L 0 1189.5 Z M 0 0 " fill-opacity="1" fill-rule="nonzero"/><path fill="#ffffff" d="M 0 0 L 1189.5 0 L 1189.5 1189.5 L 0 1189.5 Z M 0 0 " fill-opacity="1" fill-rule="nonzero"/></g><path fill="#000000" d="M -48.925781 940.390625 C -38.597656 959.027344 -45.386719 982.382812 -54.785156 1001.5 C -64.191406 1020.613281 -76.320312 1039.675781 -76.339844 1060.972656 C -76.351562 1080.59375 -61.601562 1099.613281 -41.5625 1099.214844 C -35.332031 1099.089844 -38.621094 1082.125 -31.824219 1081.238281 C -17.746094 1079.40625 -14.140625 1083.222656 -0.328125 1088.207031 C 16.164062 1094.15625 34.691406 1083.128906 44.078125 1068.304688 C 53.808594 1052.933594 54.878906 1035.398438 61.011719 1018.808594 C 67.125 1002.269531 82.960938 986.214844 87.582031 970.671875 C 98.707031 933.277344 74.28125 928.875 52.621094 900.660156 C 37.859375 881.410156 37.398438 853.886719 22.207031 834.976562 C 6.320312 815.210938 -25.136719 810.304688 -46.277344 824.285156 C -67.425781 838.261719 -57.207031 863.121094 -57.207031 888.476562 L -48.925781 940.390625 " fill-opacity="1" fill-rule="nonzero"/><path fill="#000000" d="M -182.410156 470.082031 C -156.007812 491.851562 -115.019531 487.523438 -88.332031 508.957031 C -63.660156 528.78125 -58.96875 563.644531 -51.992188 594.519531 C -45.015625 625.390625 -28.632812 660.121094 2.625 665.082031 C 26.355469 668.851562 48.976562 653.164062 64.601562 634.910156 C 72.539062 625.644531 79.789062 614.390625 78.773438 602.234375 C 77.089844 582.015625 54.441406 570.410156 46.296875 551.828125 C 38.734375 534.5625 45.007812 514.3125 54.398438 497.976562 C 63.800781 481.636719 76.332031 466.875 82.519531 449.070312 C 88.703125 431.261719 86.449219 408.410156 70.839844 397.839844 C 54.398438 386.699219 31.992188 394.0625 14.730469 403.882812 C -2.53125 413.699219 -20.324219 426.175781 -40.101562 424.402344 C -71.328125 421.609375 -88.339844 386.140625 -116.253906 371.867188 C -142.101562 358.640625 -177.195312 367.429688 -193.492188 391.460938 C -209.785156 415.488281 -204.808594 451.605469 -182.410156 470.082031 " fill-opacity="1" fill-rule="nonzero"/><path fill="#000000" d="M 211.996094 942.71875 C 204.394531 931.652344 210.675781 916.003906 206.015625 903.40625 C 202.058594 892.738281 189.839844 886.074219 178.613281 887.890625 C 167.390625 889.703125 158.078125 899.382812 156.019531 910.570312 C 153.574219 923.878906 159.835938 937.042969 161.347656 950.101562 C 163.394531 967.757812 153.46875 1001.503906 171.738281 1011.265625 C 179.800781 1015.582031 189.949219 1015.753906 198.15625 1011.714844 C 201.480469 1010.082031 204.460938 1007.824219 207.410156 1005.589844 C 214.304688 1000.355469 221.203125 995.125 228.097656 989.894531 C 234.519531 985.019531 241.605469 978.796875 241.164062 970.75 C 240.769531 963.78125 234.742188 958.523438 228.734375 954.976562 C 222.722656 951.429688 215.953125 948.476562 211.996094 942.71875 " fill-opacity="1" fill-rule="nonzero"/><path fill="#000000" d="M 188.484375 511.253906 C 177.433594 521.265625 160.792969 524.253906 151.472656 535.90625 C 138.03125 552.722656 147.734375 586.582031 169.71875 591.617188 C 194.851562 597.367188 212.566406 565.496094 234.105469 559.335938 C 252.539062 554.058594 272.824219 566.082031 291.078125 560.1875 C 308.828125 554.449219 317.570312 533.03125 314.953125 514.554688 C 312.339844 496.074219 301.195312 480.054688 289.902344 465.203125 C 278.605469 450.34375 266.558594 435.324219 261.566406 417.339844 C 253.414062 387.921875 265.421875 354.941406 253.933594 326.660156 C 243.746094 301.574219 214.238281 286.046875 187.800781 291.847656 C 161.363281 297.652344 141.070312 324.109375 142.316406 351.15625 C 143.234375 371.109375 154.265625 389.09375 166.148438 405.148438 C 178.023438 421.210938 191.320312 436.773438 198.042969 455.582031 C 204.773438 474.390625 203.28125 497.84375 188.484375 511.253906 " fill-opacity="1" fill-rule="nonzero"/><path fill="#000000" d="M 177.902344 140.539062 C 181.421875 165.082031 195.585938 191.335938 213.515625 198.378906 C 223.566406 202.328125 234.671875 193.417969 238.167969 183.203125 C 241.667969 172.984375 240.226562 161.828125 241.023438 151.0625 C 241.757812 141.09375 244.449219 131.101562 242.800781 121.242188 C 240.664062 108.414062 230.46875 97.15625 217.785156 94.308594 C 183.757812 86.664062 173.882812 112.484375 177.902344 140.539062 " fill-opacity="1" fill-rule="nonzero"/><path fill="#000000" d="M -58.113281 306.429688 C -59.898438 313.707031 -58.378906 321.273438 -48.597656 330.742188 C -32.816406 346.019531 1.902344 348.617188 12.984375 326.613281 C 18.15625 316.355469 16.296875 304.117188 14.3125 292.796875 C 12.296875 281.273438 10.199219 269.507812 4.617188 259.214844 C -0.964844 248.925781 -10.75 240.179688 -22.394531 238.992188 C -34.035156 237.796875 -46.726562 246.328125 -47.359375 258.019531 C -47.695312 264.300781 -44.058594 271.039062 -45.605469 277.269531 C -48.425781 288.621094 -55.867188 297.285156 -58.113281 306.429688 " fill-opacity="1" fill-rule="nonzero"/><g clip-path="url(#6992ad47ad)"><path fill="#000000" d="M 181.964844 1080.3125 C 158.761719 1092.34375 152.023438 1123.683594 130.371094 1138.324219 C 106.222656 1154.640625 74.09375 1144.664062 45.332031 1139.96875 C -1.429688 1132.332031 -50.691406 1141.011719 -92.03125 1164.15625 C -103.972656 1170.84375 -115.570312 1179.140625 -124.332031 1189.5 L 180.339844 1189.5 C 190.402344 1180.808594 201.960938 1174.09375 214.804688 1170.523438 C 228.265625 1166.773438 242.5625 1166.554688 255.871094 1162.269531 C 269.171875 1157.996094 282.175781 1147.917969 283.605469 1134.011719 C 285.390625 1116.546875 269.015625 1103.101562 254.039062 1093.9375 C 232.1875 1080.574219 204.707031 1068.523438 181.964844 1080.3125 " fill-opacity="1" fill-rule="nonzero"/></g><g clip-path="url(#3597aff80d)"><path fill="#000000" d="M 291.488281 76.082031 C 300.464844 111.703125 333.109375 158.285156 314.597656 195.179688 C 297.96875 228.328125 254.09375 276.636719 308.316406 302.722656 C 331.796875 314.011719 354.921875 302.367188 377.6875 296.265625 C 393.601562 291.996094 412.234375 291.578125 425.714844 281.5625 L 425.714844 207.390625 C 422.5 202.289062 419.507812 197.089844 417.503906 191.453125 C 417.085938 190.300781 416.71875 189.128906 416.386719 187.957031 C 412.871094 175.359375 413.933594 161.804688 414.421875 148.636719 C 414.953125 134.242188 414.507812 119 406.949219 106.734375 C 396.273438 89.425781 374.714844 95.171875 363.664062 79.8125 C 350.878906 62.046875 365.660156 36.636719 354.457031 17.960938 C 343.816406 0.226562 314.882812 1.820312 301.160156 17.289062 C 287.441406 32.753906 286.445312 56.03125 291.488281 76.082031 " fill-opacity="1" fill-rule="nonzero"/></g><g clip-path="url(#c2ac8f59e6)"><path fill="#000000" d="M 145.285156 694.578125 C 112.546875 717.636719 94.917969 770.726562 125.429688 796.660156 C 146.929688 814.933594 179.058594 809.519531 206.605469 815.609375 C 245.269531 824.152344 275.308594 856.945312 289.414062 893.953125 C 303.519531 930.960938 303.871094 971.765625 300.445312 1011.226562 C 298.890625 1029.15625 296.621094 1047.488281 300.996094 1064.945312 C 305.363281 1082.40625 318.167969 1099.136719 335.917969 1102.097656 C 372.140625 1108.148438 392.140625 1059.652344 425.714844 1044.726562 L 425.714844 629.160156 C 417.402344 617.246094 406.464844 607.636719 392.804688 602.605469 C 346.035156 585.390625 300.742188 626.953125 255.878906 648.65625 C 219.835938 666.089844 178.015625 671.527344 145.285156 694.578125 " fill-opacity="1" fill-rule="nonzero"/></g><path fill="#000000" d="M -117.328125 74.144531 C -99.75 82.070312 -79.171875 73.683594 -63.117188 63.003906 C -47.066406 52.3125 -31.757812 38.855469 -12.761719 35.535156 C 6.234375 32.214844 29.734375 45.386719 27.90625 64.589844 C 26.59375 78.398438 13.683594 87.574219 4.640625 98.097656 C -18.136719 124.597656 -15.714844 169.273438 10.324219 192.582031 C 36.363281 215.886719 81.714844 212.941406 103.9375 185.96875 C 117.902344 169.019531 122.164062 146.332031 126.0625 124.714844 C 131.351562 95.375 136.988281 65.617188 150.363281 38.976562 C 157.75 24.242188 167.898438 10.464844 180.339844 -0.277344 L -124.332031 -0.277344 C -129.222656 5.511719 -133.246094 11.933594 -135.921875 19.097656 C -143.375 39.082031 -136.777344 65.386719 -117.328125 74.144531 " fill-opacity="1" fill-rule="nonzero"/><g clip-path="url(#66f12adc84)"><path fill="#000000" d="M 359.03125 446.617188 C 364.585938 453.105469 364.195312 462.851562 361.710938 471.027344 C 359.222656 479.199219 354.972656 486.875 353.671875 495.320312 C 350.269531 517.394531 372.433594 539.550781 394.441406 535.757812 C 407.972656 533.429688 419.023438 523.171875 425.714844 511.121094 L 425.714844 404.226562 C 407.066406 391.460938 375.636719 396.121094 356.144531 406.074219 C 332.066406 418.367188 348.683594 434.5625 359.03125 446.617188 " fill-opacity="1" fill-rule="nonzero"/></g><path fill="#000000" d="M 778.1875 907.324219 C 789.292969 930.636719 805.59375 946.445312 828.832031 938.191406 C 836.699219 935.398438 842.78125 928.96875 850.441406 925.644531 C 866.132812 918.816406 883.972656 926.265625 901.054688 927.375 C 934.847656 929.582031 966.105469 905.433594 981.828125 875.4375 C 997.554688 845.441406 1000.648438 810.554688 1001.769531 776.703125 C 1002.617188 751.261719 998.113281 719.304688 973.863281 711.578125 C 949.542969 703.828125 920.261719 727.253906 899.242188 712.773438 C 890.207031 706.550781 886.210938 695.023438 877.722656 688.074219 C 865.070312 677.714844 846.25 680.273438 831.023438 686.246094 C 777.902344 707.101562 755.789062 759.234375 757.304688 813.484375 C 757.828125 832.054688 763.417969 876.320312 778.1875 907.324219 " fill-opacity="1" fill-rule="nonzero"/><path fill="#000000" d="M 938.996094 651 C 942.3125 661.621094 947.324219 670.132812 955.476562 670.851562 C 965.367188 671.714844 974.453125 665.824219 982.597656 660.15625 C 990.75 654.476562 999.738281 648.503906 1009.648438 649.152344 C 1021.929688 649.964844 1032.867188 660.90625 1044.890625 658.28125 C 1057.425781 655.539062 1062.238281 638.828125 1057.566406 626.863281 C 1052.902344 614.902344 1042.152344 606.613281 1032.328125 598.34375 C 1022.507812 590.070312 1012.59375 580.191406 1010.796875 567.476562 C 1009.675781 559.589844 1011.800781 551.089844 1008.480469 543.847656 C 1004.738281 535.644531 994.824219 531.695312 985.839844 532.339844 C 976.84375 532.984375 968.574219 537.300781 960.753906 541.792969 C 931.648438 558.511719 923.953125 578.160156 931.277344 610.445312 C 933.132812 618.617188 934.542969 636.71875 938.996094 651 " fill-opacity="1" fill-rule="nonzero"/><g clip-path="url(#f32bf76633)"><path fill="#000000" d="M 1138.414062 940.390625 C 1148.746094 959.027344 1141.953125 982.382812 1132.554688 1001.5 C 1123.148438 1020.613281 1111.023438 1039.675781 1111 1060.972656 C 1110.988281 1080.59375 1125.738281 1099.613281 1145.777344 1099.214844 C 1152.011719 1099.089844 1148.71875 1082.125 1155.515625 1081.238281 C 1169.59375 1079.40625 1173.199219 1083.222656 1187.011719 1088.207031 C 1203.507812 1094.15625 1222.03125 1083.128906 1231.417969 1068.304688 C 1241.148438 1052.933594 1242.21875 1035.398438 1248.351562 1018.808594 C 1254.464844 1002.269531 1270.304688 986.214844 1274.921875 970.671875 C 1286.046875 933.277344 1261.621094 928.875 1239.960938 900.660156 C 1225.199219 881.410156 1224.742188 853.886719 1209.546875 834.976562 C 1193.664062 815.210938 1162.207031 810.304688 1141.066406 824.285156 C 1119.917969 838.261719 1130.132812 863.121094 1130.132812 888.476562 L 1138.414062 940.390625 " fill-opacity="1" fill-rule="nonzero"/></g><g clip-path="url(#6674e4857a)"><path fill="#000000" d="M 1004.929688 470.082031 C 1031.335938 491.851562 1072.324219 487.523438 1099.007812 508.957031 C 1123.679688 528.78125 1128.371094 563.644531 1135.347656 594.519531 C 1142.324219 625.390625 1158.707031 660.121094 1189.964844 665.082031 C 1213.695312 668.851562 1236.316406 653.164062 1251.941406 634.910156 C 1259.882812 625.644531 1267.128906 614.390625 1266.113281 602.234375 C 1264.429688 582.015625 1241.78125 570.410156 1233.636719 551.828125 C 1226.074219 534.5625 1232.347656 514.3125 1241.742188 497.976562 C 1251.140625 481.636719 1263.671875 466.875 1269.859375 449.070312 C 1276.046875 431.261719 1273.789062 408.410156 1258.183594 397.839844 C 1241.742188 386.699219 1219.332031 394.0625 1202.074219 403.882812 C 1184.808594 413.699219 1167.019531 426.175781 1147.238281 424.402344 C 1116.011719 421.609375 1099 386.140625 1071.089844 371.867188 C 1045.242188 358.640625 1010.144531 367.429688 993.851562 391.460938 C 977.554688 415.488281 982.53125 451.605469 1004.929688 470.082031 " fill-opacity="1" fill-rule="nonzero"/></g><path fill="#000000" d="M 922.917969 364.390625 C 945.707031 321.996094 1015.761719 325.382812 1038.285156 282.851562 C 1053.949219 253.28125 1036.390625 214.664062 1008.214844 196.621094 C 980.035156 178.582031 944.789062 176.304688 911.335938 176.707031 C 877.878906 177.105469 843.578125 179.542969 811.746094 169.226562 C 788.515625 161.691406 767.554688 147.609375 743.691406 142.390625 C 698.394531 132.484375 648.847656 159.585938 629.464844 201.710938 C 610.078125 243.847656 620.199219 296.78125 651.050781 331.40625 C 672.527344 355.507812 702.25 371.011719 724.070312 394.796875 C 745.886719 418.59375 757.914062 457.601562 737.296875 482.4375 C 706.789062 519.207031 634.121094 494.476562 608.769531 534.976562 C 594.464844 557.84375 605.429688 588.152344 620.832031 610.300781 C 639.269531 636.8125 664.953125 659.683594 696.148438 668.027344 C 727.347656 676.375 764.246094 667.519531 783.382812 641.5 C 810.777344 604.246094 796.289062 545.007812 829.523438 512.867188 C 850.617188 492.46875 885.695312 489.335938 902.625 465.375 C 922.699219 436.957031 906.441406 395.03125 922.917969 364.390625 " fill-opacity="1" fill-rule="nonzero"/><path fill="#000000" d="M 711.816406 873.207031 C 718.539062 840.128906 690.632812 811.59375 671.4375 783.839844 C 653.242188 757.535156 641.652344 727.160156 623.878906 700.570312 C 606.09375 673.976562 579.398438 650.242188 547.46875 648.390625 C 515.546875 646.53125 481.914062 675.96875 489.316406 707.089844 C 497.351562 740.875 541.945312 751.671875 559.445312 781.667969 C 582.902344 821.875 547.972656 871.738281 551.5625 918.148438 C 555.519531 969.203125 603.691406 1003.695312 647.136719 1030.792969 C 660.324219 1039.011719 677.277344 1047.316406 690.421875 1039.03125 C 704.226562 1030.328125 703.074219 1009.484375 696.261719 994.648438 C 689.445312 979.808594 678.539062 966.011719 677.882812 949.691406 C 676.753906 921.433594 706.1875 900.917969 711.816406 873.207031 " fill-opacity="1" fill-rule="nonzero"/><path fill="#000000" d="M 1147.703125 681.898438 C 1143.109375 670.671875 1131.027344 662.976562 1118.914062 663.546875 C 1106.800781 664.125 1095.503906 672.929688 1091.992188 684.542969 C 1088.414062 696.339844 1092.449219 708.960938 1096.457031 720.621094 C 1102.789062 739.0625 1112.316406 762.234375 1134.832031 766.921875 C 1148.503906 769.765625 1188.085938 763.867188 1185.300781 744.082031 C 1184.394531 737.734375 1179.007812 733.023438 1173.53125 729.683594 C 1168.0625 726.347656 1161.96875 723.628906 1157.898438 718.667969 C 1149.746094 708.726562 1152.582031 693.796875 1147.703125 681.898438 " fill-opacity="1" fill-rule="nonzero"/><path fill="#000000" d="M 1041.703125 968.207031 C 1032.640625 956.84375 1028.859375 939.773438 1036.613281 929.453125 C 1040.660156 924.078125 1049.078125 921.90625 1054.425781 925.980469 C 1058.664062 929.203125 1059.917969 935.023438 1063.335938 939.101562 C 1068.640625 945.421875 1077.792969 946.351562 1085.519531 949.246094 C 1118.8125 961.714844 1075.550781 982.769531 1058.5625 979.457031 C 1052.136719 978.199219 1046.257812 973.925781 1041.703125 968.207031 " fill-opacity="1" fill-rule="nonzero"/><path fill="#000000" d="M 563.902344 347.394531 C 544.296875 344.546875 525.976562 333.617188 514.148438 317.714844 C 508.875 310.632812 504.527344 302.320312 496.863281 297.949219 C 481.621094 289.265625 462.386719 300.804688 451.910156 314.875 C 446.167969 322.582031 441.527344 331.4375 440.574219 341.007812 C 439.617188 350.574219 442.851562 360.90625 450.429688 366.8125 C 455.609375 370.851562 462.378906 372.601562 467.175781 377.097656 C 491.777344 400.128906 451.503906 434.164062 494.871094 446.28125 C 545.105469 460.316406 552.472656 403.136719 594.484375 394.339844 C 603.417969 392.46875 613.097656 388.398438 616.335938 379.867188 C 620.605469 368.632812 610.789062 356.363281 599.515625 352.207031 C 588.238281 348.050781 575.800781 349.121094 563.902344 347.394531 " fill-opacity="1" fill-rule="nonzero"/><path fill="#000000" d="M 966.460938 89.660156 C 967.566406 71.335938 953.007812 51.003906 943.515625 37.160156 C 933.964844 23.226562 921.292969 10.589844 905.222656 5.367188 C 889.160156 0.148438 869.359375 4.066406 859.515625 17.800781 C 849.675781 31.539062 854.6875 54.605469 870.71875 59.941406 C 878.027344 62.378906 886.023438 61.078125 893.640625 62.265625 C 901.246094 63.449219 909.476562 68.945312 908.964844 76.632812 C 908.460938 84.308594 899.558594 89.511719 899.3125 97.207031 C 898.539062 121.761719 948.746094 120.015625 959.929688 106.335938 C 964.160156 101.164062 966.109375 95.515625 966.460938 89.660156 " fill-opacity="1" fill-rule="nonzero"/><path fill="#000000" d="M 971.46875 1096.839844 C 975.929688 1074.273438 961.445312 1049.375 939.480469 1042.554688 C 915.226562 1035.019531 887.546875 1048 864.074219 1038.300781 C 842.011719 1029.183594 830.90625 1002.867188 808.953125 993.476562 C 791.582031 986.054688 769.652344 991.964844 757.929688 1006.777344 C 746.199219 1021.589844 745.34375 1043.898438 755.425781 1059.878906 C 765.507812 1075.851562 785.613281 1084.65625 804.28125 1081.78125 C 840.816406 1076.164062 846.730469 1069.632812 860.335938 1101.914062 C 879.992188 1148.527344 960.5 1152.296875 971.46875 1096.839844 " fill-opacity="1" fill-rule="nonzero"/><path fill="#000000" d="M 478.164062 531.269531 C 475.277344 540.046875 475.367188 550.570312 481.394531 557.5625 C 485.324219 562.125 491.324219 564.699219 494.644531 569.71875 C 500.683594 578.863281 495.382812 591.65625 499.515625 601.800781 C 503.851562 612.425781 518.566406 616.449219 528.589844 610.863281 C 538.613281 605.28125 543.175781 592.300781 540.617188 581.113281 C 538.699219 572.707031 533.417969 565.277344 532.121094 556.753906 C 530.335938 544.996094 536.371094 532.613281 532.546875 521.34375 C 528.636719 509.847656 514.625 503.691406 502.824219 506.574219 C 491.019531 509.453125 481.960938 519.730469 478.164062 531.269531 " fill-opacity="1" fill-rule="nonzero"/><path fill="#000000" d="M 519.492188 248.878906 C 511.699219 248.136719 503.214844 243.953125 497.902344 240.207031 C 491.578125 235.738281 482.371094 223.816406 490.933594 216.816406 C 495.011719 213.484375 501.355469 214.222656 505.417969 210.867188 C 511.722656 205.664062 508.066406 195.265625 502.648438 189.144531 C 497.226562 183.023438 490.003906 176.96875 490.164062 168.789062 C 490.398438 156.703125 506.738281 151.597656 518.261719 155.242188 C 527.933594 158.304688 536.332031 165.015625 541.828125 173.546875 C 550.316406 186.742188 551.683594 203.675781 547.925781 218.914062 C 545.457031 228.921875 539.164062 242.300781 529.421875 247.324219 C 526.511719 248.824219 523.074219 249.210938 519.492188 248.878906 " fill-opacity="1" fill-rule="nonzero"/><g clip-path="url(#7390202113)"><path fill="#000000" d="M 1129.230469 306.429688 C 1127.445312 313.707031 1128.964844 321.273438 1138.742188 330.742188 C 1154.527344 346.019531 1189.242188 348.617188 1200.328125 326.613281 C 1205.496094 316.355469 1203.640625 304.117188 1201.65625 292.796875 C 1199.636719 281.273438 1197.539062 269.507812 1191.957031 259.214844 C 1186.375 248.925781 1176.589844 240.179688 1164.949219 238.992188 C 1153.304688 237.796875 1140.613281 246.328125 1139.984375 258.019531 C 1139.644531 264.300781 1143.28125 271.039062 1141.734375 277.269531 C 1138.914062 288.621094 1131.472656 297.285156 1129.230469 306.429688 " fill-opacity="1" fill-rule="nonzero"/></g><path fill="#000000" d="M 1089.742188 190.558594 C 1093.570312 180.28125 1102.902344 173.25 1111.679688 166.667969 C 1120.460938 160.097656 1129.632812 152.714844 1132.851562 142.222656 C 1136.074219 131.738281 1129.875 117.804688 1118.914062 117.390625 C 1107.199219 116.960938 1099.910156 130.808594 1088.613281 133.9375 C 1075.714844 137.503906 1060.9375 126.261719 1049.28125 132.828125 C 1041.511719 137.210938 1039.414062 147.714844 1040.984375 156.5 C 1042.558594 165.28125 1046.878906 173.363281 1048.753906 182.085938 C 1050.78125 191.546875 1049.90625 201.585938 1053.046875 210.742188 C 1056.191406 219.898438 1065.816406 228.183594 1074.917969 224.890625 C 1087.179688 220.449219 1085.195312 202.78125 1089.742188 190.558594 " fill-opacity="1" fill-rule="nonzero"/><g clip-path="url(#3dfdc3c41a)"><path fill="#000000" d="M 1369.308594 1080.3125 C 1346.101562 1092.34375 1339.363281 1123.683594 1317.710938 1138.324219 C 1293.5625 1154.640625 1261.433594 1144.664062 1232.671875 1139.96875 C 1185.910156 1132.332031 1136.648438 1141.011719 1095.308594 1164.15625 C 1083.367188 1170.84375 1071.773438 1179.140625 1063.011719 1189.5 L 1367.679688 1189.5 C 1377.742188 1180.808594 1389.300781 1174.09375 1402.144531 1170.523438 C 1415.605469 1166.773438 1429.902344 1166.554688 1443.210938 1162.269531 C 1456.515625 1157.996094 1469.519531 1147.917969 1470.945312 1134.011719 C 1472.730469 1116.546875 1456.355469 1103.101562 1441.378906 1093.9375 C 1419.527344 1080.574219 1392.046875 1068.523438 1369.308594 1080.3125 " fill-opacity="1" fill-rule="nonzero"/></g><g clip-path="url(#acacfeb3ac)"><path fill="#000000" d="M 709.9375 1104.03125 C 677.171875 1093.8125 641.992188 1095.214844 607.839844 1098.605469 C 579.070312 1101.460938 545.796875 1108.917969 533.683594 1135.175781 C 526.113281 1151.574219 528.21875 1172.894531 523.261719 1189.5 L 785.382812 1189.5 C 785.300781 1183.21875 784.425781 1176.96875 782.660156 1170.988281 C 772.957031 1138.0625 742.699219 1114.25 709.9375 1104.03125 " fill-opacity="1" fill-rule="nonzero"/></g><path fill="#000000" d="M 510.628906 18.484375 C 492.230469 31.371094 465.105469 18.597656 445.09375 28.804688 C 426.296875 38.382812 422.386719 65.585938 432.414062 84.148438 C 442.445312 102.710938 462.191406 113.878906 481.933594 121.335938 C 505.207031 130.121094 532.726562 134.6875 553.933594 121.6875 C 578.148438 106.847656 586.707031 73.671875 611.558594 59.933594 C 650.6875 38.3125 700.019531 78 742.800781 65.007812 C 769.664062 56.839844 785.742188 27.980469 785.382812 -0.277344 L 523.261719 -0.277344 C 521.015625 7.246094 517.328125 13.796875 510.628906 18.484375 " fill-opacity="1" fill-rule="nonzero"/><path fill="#000000" d="M 431 274.300781 C 439.386719 263.390625 442.246094 248.441406 438.476562 235.207031 C 435.574219 225.042969 429.222656 216.378906 423.554688 207.390625 L 423.554688 281.5625 C 426.261719 279.550781 428.777344 277.195312 431 274.300781 " fill-opacity="1" fill-rule="nonzero"/><g clip-path="url(#ae9baa90d1)"><path fill="#000000" d="M 1070.011719 74.144531 C 1087.589844 82.070312 1108.167969 73.683594 1124.222656 63.003906 C 1140.273438 52.3125 1155.582031 38.855469 1174.578125 35.535156 C 1193.578125 32.214844 1217.074219 45.386719 1215.25 64.589844 C 1213.933594 78.398438 1201.023438 87.574219 1191.984375 98.097656 C 1169.203125 124.597656 1171.625 169.273438 1197.664062 192.582031 C 1223.707031 215.886719 1269.054688 212.941406 1291.277344 185.96875 C 1305.246094 169.019531 1309.507812 146.332031 1313.402344 124.714844 C 1318.691406 95.375 1324.328125 65.617188 1337.703125 38.976562 C 1345.09375 24.242188 1355.242188 10.464844 1367.679688 -0.277344 L 1063.011719 -0.277344 C 1058.117188 5.511719 1054.09375 11.933594 1051.421875 19.097656 C 1043.964844 39.082031 1050.5625 65.386719 1070.011719 74.144531 " fill-opacity="1" fill-rule="nonzero"/></g><path fill="#000000" d="M 487.722656 1029.796875 C 507.011719 1017.910156 512.460938 991.378906 507.507812 969.257812 C 502.558594 947.140625 489.582031 927.847656 478.960938 907.824219 C 455.941406 864.394531 443.421875 815.449219 442.769531 766.304688 C 442.359375 735.597656 446.480469 704.617188 441.402344 674.335938 C 438.726562 658.414062 432.765625 642.367188 423.554688 629.160156 L 423.554688 1044.726562 C 424.351562 1044.375 425.148438 1044.023438 425.957031 1043.703125 C 445.769531 1036.015625 469.621094 1040.941406 487.722656 1029.796875 " fill-opacity="1" fill-rule="nonzero"/><path fill="#000000" d="M 435.925781 468.589844 C 438.460938 454.007812 440.992188 438.917969 437.378906 424.5625 C 435.050781 415.289062 430.078125 408.703125 423.554688 404.226562 L 423.554688 511.121094 C 423.820312 510.644531 424.097656 510.15625 424.351562 509.667969 C 430.941406 496.992188 433.476562 482.664062 435.925781 468.589844 " fill-opacity="1" fill-rule="nonzero"/></svg>